<svg width="48" height="48" viewBox="0 0 48 48" xmlns="http://www.w3.org/2000/svg">
  <defs>
    <style>
      .icon-bg { fill:#242938 ; }
      .icon-logo { fill: #ffffff; }
    </style>
  </defs>

  <!-- Background rounded square -->
  <rect width="48" height="48" rx="8" class="icon-bg"/>

  <!-- shadcn/ui logo centered and scaled -->
  <g transform="translate(12, 12) scale(1)">
    <path class="icon-logo" d="M22.219 11.784 11.784 22.219c-.407.407-.407 1.068 0 1.476.407.407 1.068.407 1.476 0L23.695 13.26c.407-.408.407-1.069 0-1.476-.408-.407-1.069-.407-1.476 0ZM20.132.305.305 20.132c-.407.407-.407 1.068 0 1.476.408.407 1.069.407 1.476 0L21.608 1.781c.407-.407.407-1.068 0-1.476-.408-.407-1.069-.407-1.476 0Z"/>
  </g>
</svg>
